<?xml version="1.0" standalone="no"?>
<!DOCTYPE svg PUBLIC "-//W3C//DTD SVG 20010904//EN"
 "http://www.w3.org/TR/2001/REC-SVG-20010904/DTD/svg10.dtd">
<svg version="1.0" xmlns="http://www.w3.org/2000/svg"
width="499.000000pt" height="500.000000pt" viewBox="0 0 499.000000 500.000000"
preserveAspectRatio="xMidYMid meet">

<g transform="translate(0.000000,500.000000) scale(0.100000,-0.100000)"
fill="#F5B23A" stroke="none">
<path d="M1941 4605 c-245 -54 -600 -239 -841 -439 -391 -325 -653 -803 -701
-1282 -11 -103 -10 -115 7 -150 11 -21 33 -47 51 -57 31 -18 73 -18 909 -17
801 1 879 2 905 17 61 36 59 -3 59 958 0 867 0 878 -20 911 -43 68 -206 94
-369 59z"/>
<path d="M2685 4557 c-24 -24 -35 -46 -40 -78 -3 -24 -5 -424 -3 -889 3 -829
3 -846 23 -880 44 -75 -13 -71 962 -68 864 3 872 3 900 24 48 35 64 79 57 154
-11 119 -62 353 -104 475 -194 562 -643 1003 -1225 1203 -123 42 -373 92 -463
92 -70 0 -76 -2 -107 -33z"/>
<path d="M4215 2365 c-275 -51 -534 -152 -738 -289 -422 -282 -735 -732 -837
-1204 -27 -125 -44 -281 -36 -324 10 -52 47 -93 98 -107 32 -9 260 -11 888 -8
939 3 887 -1 930 70 19 31 20 57 20 910 0 964 3 920 -60 952 -36 19 -164 19
-265 0z"/>
<path d="M441 2324 c-47 -39 -56 -83 -41 -205 31 -272 160 -622 312 -849 268
-399 703 -705 1158 -815 134 -32 314 -57 354 -49 35 6 63 27 89 64 16 23 17
89 17 913 l0 889 -39 39 -39 39 -890 0 -890 0 -31 -26z"/>
</g>
</svg>
